<svg xmlns="http://www.w3.org/2000/svg" enable-background="new 0 0 66 66" viewBox="0 0 66 66" id="coconut-oil">
  <path fill="#A4CE45" d="M60.7,10c0,0-4.5,18.8-25.9,27.7C34.8,37.7,33.3,11.4,60.7,10z"></path>
  <path fill="#70AE43" d="M60.7,10c0,0-4.5,18.8-25.9,27.7C34.8,37.7,50,14.2,60.7,10z"></path>
  <path fill="#A4CE45" d="M9.9,21.5c0,0,4.5,18.8,25.9,27.7C35.8,49.3,37.3,22.9,9.9,21.5z"></path>
  <path fill="#70AE43" d="M9.9,21.5c0,0,4.5,18.8,25.9,27.7C35.8,49.3,20.6,25.8,9.9,21.5z"></path>
  <g>
    <path fill="#AA8876" d="M62.9,29c-0.2-1.4-1-2.3-2.4-2.4c-7.1-0.6-15.3-4.8-24.9,4.8c-7.5,7.5-7.7,17.7-1.5,24
				c6.2,6.2,16.5,6,24-1.5C68,44.1,63.6,35.1,62.9,29z"></path>
    <path fill="#C7A38B" d="M62.9,29c-0.1-0.7-0.3-1.2-0.7-1.7l-28,28c6.3,6.2,16.5,6,24-1.5C68,44.1,63.6,35.1,62.9,29z"></path>
    <path fill="#AA8876" d="M62.2,32.4c0-0.3,1.1,8-6.3,17.5C55.9,49.9,62.9,38.8,62.2,32.4z"></path>
    <path fill="#D6B8A0" d="M54.2,29.6c0,0-11.6-0.2-21.5,15.2C32.7,44.8,42.8,31.5,54.2,29.6z"></path>
    <path fill="#C7A38B" d="M54.9,44.2c0,0-4.4,10.5-14.3,11.4C40.6,55.6,47.7,52.9,54.9,44.2z"></path>
    <g>
      <path fill="#E7E7E9" d="M1,26.4c0,9.3,7.5,16.8,16.8,16.8c9.3,0,16.8-7.5,16.8-16.8c0-9.3-7.5-16.8-16.8-16.8
						C8.6,9.6,1,17.1,1,26.4z M17.8,37.7c-6.2,0-11.3-5.1-11.3-11.3s5.1-11.3,11.3-11.3c6.2,0,11.3,5.1,11.3,11.3
						C29.1,32.7,24,37.7,17.8,37.7z"></path>
      <path fill="#D5D9DC" d="M3.7,26.4c0,7.8,6.3,14.1,14.1,14.1c7.8,0,14.1-6.3,14.1-14.1c0-7.8-6.3-14.1-14.1-14.1
						C10,12.3,3.7,18.6,3.7,26.4z M6.5,26.4c0-6.2,5.1-11.3,11.3-11.3c6.2,0,11.3,5.1,11.3,11.3c0,6.2-5.1,11.3-11.3,11.3
						S6.5,32.6,6.5,26.4z"></path>
      <rect width="12.1" height="31.8" x="23.5" y="2.6" fill="#E7E7E9"></rect>
      <rect width="6.1" height="31.8" x="23.5" y="2.6" fill="#D5D9DC"></rect>
      <path fill="#D5D9DC" d="M21.5,0.8h16.2c0.4,0,0.7,0.3,0.7,0.7v3.2c0,0.4-0.3,0.7-0.7,0.7H21.5c-0.4,0-0.7-0.3-0.7-0.7V1.4
					C20.8,1.1,21.1,0.8,21.5,0.8z"></path>
      <path fill="#E7E7E9" d="M21.5.8h8.1v4.6h-8.1c-.4 0-.7-.3-.7-.7V1.4C20.8 1.1 21.1.8 21.5.8zM40.3 64.2H18.8c-1.9 0-3.7-.8-5-2.2-3.8-4.3-6-10.2-5.2-16.6 1.1-9.6 8.9-17.4 18.6-18.4 12.7-1.4 23.5 8.5 23.5 21 0 5.4-2 10.3-5.4 14.1C44 63.3 42.2 64.2 40.3 64.2z"></path>
      <path fill="#D5D9DC" d="M50.7,47.9c0,5.4-2,10.3-5.4,14.1c-1.3,1.4-3.1,2.2-5,2.2H29.6V26.8C41.3,26.8,50.7,36.2,50.7,47.9z"></path>
      <path fill="#FBD32D" d="M13.7,41.6c-0.5,1.3-0.9,2.8-1.1,4.2c-0.6,5,0.9,9.7,4.2,13.4c0.5,0.5,1.2,0.9,1.9,0.9h21.6
				c0.7,0,1.4-0.3,1.9-0.8c2.8-3.1,4.3-7.1,4.3-11.3c0-2.2-0.4-4.3-1.2-6.3H13.7z"></path>
      <path fill="#E1B724" d="M45.4,41.6H29.6V60h10.7c0.7,0,1.4-0.3,1.9-0.8c2.8-3.1,4.3-7.1,4.3-11.3C46.6,45.6,46.1,43.5,45.4,41.6z
				"></path>
    </g>
    <g>
      <path fill="#AA8876" d="M63.9,43.2c-0.1-1-0.7-1.6-1.7-1.7c-5.1-0.4-10.9-3.5-17.8,3.4c-5.3,5.3-5.5,12.7-1.1,17.2
				c4.5,4.4,11.8,4.3,17.2-1.1C67.5,54,64.4,47.6,63.9,43.2z"></path>
      <path fill="#C7A38B" d="M63.9,43.2c-0.1-0.5-0.2-0.9-0.5-1.2L43.3,62.1c4.5,4.4,11.8,4.3,17.2-1.1C67.5,54,64.4,47.6,63.9,43.2z"></path>
      <path fill="#E7E7E9" d="M51,62c-2.1,0-3.9-0.8-5.4-2.2c-3.3-3.3-2.8-8.6,1.1-12.5c3.1-3.1,5.6-3.5,7.5-3.5c1.4,0,2.8,0.3,4.3,0.5
				c0.7,0.1,1.5,0.3,2.3,0.4c0.1,0.6,0.2,1.1,0.3,1.7c0.8,4,1.6,7.8-2.9,12.3C56.1,60.8,53.5,62,51,62L51,62z"></path>
      <path fill="#D5D9DC" d="M51.5,59c-1.4,0-2.6-0.5-3.6-1.5c-2.2-2.2-1.9-5.8,0.7-8.4c2.1-2.1,3.8-2.3,5-2.3c0.9,0,1.9,0.2,2.9,0.3
				c0.5,0.1,1,0.2,1.5,0.2c0.1,0.4,0.1,0.7,0.2,1.1c0.5,2.7,1.1,5.2-2,8.3C54.9,58.2,53.2,59,51.5,59L51.5,59z"></path>
    </g>
  </g>
</svg>
